<mxfile host="app.diagrams.net" agent="Mozilla/5.0 (Windows NT 10.0; Win64; x64) AppleWebKit/537.36 (KHTML, like Gecko) Chrome/137.0.0.0 Safari/537.36" version="27.1.4">
  <diagram name="Страница — 1" id="ntuMn6TpGuucFawu_nP0">
    <mxGraphModel dx="2081" dy="969" grid="0" gridSize="10" guides="1" tooltips="1" connect="1" arrows="1" fold="1" page="0" pageScale="1" pageWidth="827" pageHeight="1169" background="none" math="0" shadow="0">
      <root>
        <mxCell id="0" />
        <mxCell id="1" parent="0" />
        <mxCell id="NeOViKhieci7HEMfsE7Z-11" style="edgeStyle=orthogonalEdgeStyle;rounded=0;orthogonalLoop=1;jettySize=auto;html=1;exitX=1;exitY=0.5;exitDx=0;exitDy=0;entryX=0;entryY=0.5;entryDx=0;entryDy=0;endArrow=none;startFill=0;" parent="1" target="NeOViKhieci7HEMfsE7Z-8" edge="1">
          <mxGeometry relative="1" as="geometry">
            <mxPoint x="280" y="-15" as="sourcePoint" />
          </mxGeometry>
        </mxCell>
        <mxCell id="NeOViKhieci7HEMfsE7Z-17" style="edgeStyle=orthogonalEdgeStyle;rounded=0;orthogonalLoop=1;jettySize=auto;html=1;exitX=1;exitY=0.5;exitDx=0;exitDy=0;entryX=0;entryY=0.5;entryDx=0;entryDy=0;endArrow=none;startFill=0;" parent="1" source="NeOViKhieci7HEMfsE7Z-19" target="NeOViKhieci7HEMfsE7Z-9" edge="1">
          <mxGeometry relative="1" as="geometry">
            <mxPoint x="590" y="-15" as="sourcePoint" />
          </mxGeometry>
        </mxCell>
        <mxCell id="NeOViKhieci7HEMfsE7Z-14" style="edgeStyle=orthogonalEdgeStyle;rounded=0;orthogonalLoop=1;jettySize=auto;html=1;exitX=1;exitY=0.5;exitDx=0;exitDy=0;entryX=0;entryY=0.5;entryDx=0;entryDy=0;endArrow=none;startFill=0;" parent="1" source="NeOViKhieci7HEMfsE7Z-8" edge="1">
          <mxGeometry relative="1" as="geometry">
            <mxPoint x="470" y="-15" as="targetPoint" />
          </mxGeometry>
        </mxCell>
        <mxCell id="NeOViKhieci7HEMfsE7Z-8" value="&lt;span style=&quot;font-size: 14px;&quot;&gt;состоит из&lt;/span&gt;" style="shape=rhombus;perimeter=rhombusPerimeter;whiteSpace=wrap;html=1;align=center;" parent="1" vertex="1">
          <mxGeometry x="310" y="-45" width="120" height="60" as="geometry" />
        </mxCell>
        <mxCell id="NeOViKhieci7HEMfsE7Z-16" style="edgeStyle=orthogonalEdgeStyle;rounded=0;orthogonalLoop=1;jettySize=auto;html=1;exitX=1;exitY=0.5;exitDx=0;exitDy=0;endArrow=none;startFill=0;" parent="1" source="NeOViKhieci7HEMfsE7Z-9" edge="1">
          <mxGeometry relative="1" as="geometry">
            <mxPoint x="780" y="-15" as="targetPoint" />
          </mxGeometry>
        </mxCell>
        <mxCell id="NeOViKhieci7HEMfsE7Z-9" value="&lt;span style=&quot;font-size: 14px;&quot;&gt;состоит из&lt;/span&gt;" style="shape=rhombus;perimeter=rhombusPerimeter;whiteSpace=wrap;html=1;align=center;" parent="1" vertex="1">
          <mxGeometry x="620" y="-45" width="120" height="60" as="geometry" />
        </mxCell>
        <mxCell id="NeOViKhieci7HEMfsE7Z-18" value="&lt;span style=&quot;font-size: 14px;&quot;&gt;предприятие&lt;/span&gt;" style="whiteSpace=wrap;html=1;align=center;" parent="1" vertex="1">
          <mxGeometry x="180" y="-35" width="100" height="40" as="geometry" />
        </mxCell>
        <mxCell id="NeOViKhieci7HEMfsE7Z-31" style="edgeStyle=orthogonalEdgeStyle;rounded=0;orthogonalLoop=1;jettySize=auto;html=1;exitX=0.5;exitY=0;exitDx=0;exitDy=0;entryX=0.5;entryY=1;entryDx=0;entryDy=0;endArrow=none;startFill=0;" parent="1" source="NeOViKhieci7HEMfsE7Z-19" target="NeOViKhieci7HEMfsE7Z-30" edge="1">
          <mxGeometry relative="1" as="geometry" />
        </mxCell>
        <mxCell id="NeOViKhieci7HEMfsE7Z-19" value="&lt;span style=&quot;font-size: 14px;&quot;&gt;цех&lt;/span&gt;" style="whiteSpace=wrap;html=1;align=center;" parent="1" vertex="1">
          <mxGeometry x="470" y="-35" width="100" height="40" as="geometry" />
        </mxCell>
        <mxCell id="NeOViKhieci7HEMfsE7Z-20" value="&lt;span style=&quot;font-size: 14px;&quot;&gt;участок&lt;/span&gt;" style="whiteSpace=wrap;html=1;align=center;" parent="1" vertex="1">
          <mxGeometry x="780" y="-35" width="100" height="40" as="geometry" />
        </mxCell>
        <mxCell id="NeOViKhieci7HEMfsE7Z-28" style="edgeStyle=orthogonalEdgeStyle;rounded=0;orthogonalLoop=1;jettySize=auto;html=1;exitX=0.5;exitY=0;exitDx=0;exitDy=0;entryX=0.5;entryY=1;entryDx=0;entryDy=0;endArrow=none;startFill=0;" parent="1" source="NeOViKhieci7HEMfsE7Z-21" target="NeOViKhieci7HEMfsE7Z-27" edge="1">
          <mxGeometry relative="1" as="geometry" />
        </mxCell>
        <mxCell id="NeOViKhieci7HEMfsE7Z-21" value="&lt;span style=&quot;font-size: 14px;&quot;&gt;бригада&lt;/span&gt;" style="whiteSpace=wrap;html=1;align=center;" parent="1" vertex="1">
          <mxGeometry x="780" y="130" width="100" height="40" as="geometry" />
        </mxCell>
        <mxCell id="NeOViKhieci7HEMfsE7Z-22" value="&lt;font style=&quot;font-size: 14px;&quot;&gt;Испыт.лаб.&lt;/font&gt;" style="whiteSpace=wrap;html=1;align=center;" parent="1" vertex="1">
          <mxGeometry x="470" y="-200" width="100" height="40" as="geometry" />
        </mxCell>
        <mxCell id="NeOViKhieci7HEMfsE7Z-25" style="edgeStyle=orthogonalEdgeStyle;rounded=0;orthogonalLoop=1;jettySize=auto;html=1;exitX=0.5;exitY=0;exitDx=0;exitDy=0;entryX=0.5;entryY=1;entryDx=0;entryDy=0;endArrow=none;startFill=0;" parent="1" source="NeOViKhieci7HEMfsE7Z-23" target="NeOViKhieci7HEMfsE7Z-24" edge="1">
          <mxGeometry relative="1" as="geometry" />
        </mxCell>
        <mxCell id="NeOViKhieci7HEMfsE7Z-23" value="&lt;font style=&quot;font-size: 14px;&quot;&gt;Изделие&lt;/font&gt;" style="whiteSpace=wrap;html=1;align=center;" parent="1" vertex="1">
          <mxGeometry x="470" y="130" width="100" height="40" as="geometry" />
        </mxCell>
        <mxCell id="NeOViKhieci7HEMfsE7Z-26" style="edgeStyle=orthogonalEdgeStyle;rounded=0;orthogonalLoop=1;jettySize=auto;html=1;exitX=0.5;exitY=0;exitDx=0;exitDy=0;entryX=0.5;entryY=1;entryDx=0;entryDy=0;endArrow=none;startFill=0;" parent="1" source="NeOViKhieci7HEMfsE7Z-24" target="NeOViKhieci7HEMfsE7Z-19" edge="1">
          <mxGeometry relative="1" as="geometry" />
        </mxCell>
        <mxCell id="NeOViKhieci7HEMfsE7Z-24" value="&lt;span style=&quot;font-size: 14px;&quot;&gt;производится в&lt;/span&gt;" style="shape=rhombus;perimeter=rhombusPerimeter;whiteSpace=wrap;html=1;align=center;" parent="1" vertex="1">
          <mxGeometry x="460" y="40" width="120" height="60" as="geometry" />
        </mxCell>
        <mxCell id="NeOViKhieci7HEMfsE7Z-29" style="edgeStyle=orthogonalEdgeStyle;rounded=0;orthogonalLoop=1;jettySize=auto;html=1;exitX=0.5;exitY=0;exitDx=0;exitDy=0;entryX=0.5;entryY=1;entryDx=0;entryDy=0;endArrow=none;startFill=0;" parent="1" source="NeOViKhieci7HEMfsE7Z-27" target="NeOViKhieci7HEMfsE7Z-20" edge="1">
          <mxGeometry relative="1" as="geometry" />
        </mxCell>
        <mxCell id="NeOViKhieci7HEMfsE7Z-27" value="&lt;span style=&quot;font-size: 14px;&quot;&gt;работает на&lt;/span&gt;" style="shape=rhombus;perimeter=rhombusPerimeter;whiteSpace=wrap;html=1;align=center;" parent="1" vertex="1">
          <mxGeometry x="770" y="40" width="120" height="60" as="geometry" />
        </mxCell>
        <mxCell id="NeOViKhieci7HEMfsE7Z-32" style="edgeStyle=orthogonalEdgeStyle;rounded=0;orthogonalLoop=1;jettySize=auto;html=1;exitX=0.5;exitY=0;exitDx=0;exitDy=0;entryX=0.5;entryY=1;entryDx=0;entryDy=0;endArrow=none;startFill=0;" parent="1" source="NeOViKhieci7HEMfsE7Z-30" target="NeOViKhieci7HEMfsE7Z-22" edge="1">
          <mxGeometry relative="1" as="geometry" />
        </mxCell>
        <mxCell id="NeOViKhieci7HEMfsE7Z-30" value="&lt;span style=&quot;font-size: 14px;&quot;&gt;обслуживается&lt;/span&gt;" style="shape=rhombus;perimeter=rhombusPerimeter;whiteSpace=wrap;html=1;align=center;" parent="1" vertex="1">
          <mxGeometry x="460" y="-130" width="120" height="60" as="geometry" />
        </mxCell>
        <mxCell id="NeOViKhieci7HEMfsE7Z-35" style="edgeStyle=orthogonalEdgeStyle;rounded=0;orthogonalLoop=1;jettySize=auto;html=1;exitX=0.5;exitY=0;exitDx=0;exitDy=0;entryX=0.5;entryY=1;entryDx=0;entryDy=0;endArrow=none;startFill=0;" parent="1" target="NeOViKhieci7HEMfsE7Z-34" edge="1">
          <mxGeometry relative="1" as="geometry">
            <mxPoint x="830" y="299" as="sourcePoint" />
          </mxGeometry>
        </mxCell>
        <mxCell id="NeOViKhieci7HEMfsE7Z-33" value="&lt;font style=&quot;font-size: 14px;&quot;&gt;сотрудник&lt;/font&gt;" style="whiteSpace=wrap;html=1;align=center;" parent="1" vertex="1">
          <mxGeometry x="780" y="300" width="100" height="40" as="geometry" />
        </mxCell>
        <mxCell id="NeOViKhieci7HEMfsE7Z-36" style="edgeStyle=orthogonalEdgeStyle;rounded=0;orthogonalLoop=1;jettySize=auto;html=1;exitX=0.5;exitY=0;exitDx=0;exitDy=0;entryX=0.5;entryY=1;entryDx=0;entryDy=0;endArrow=none;startFill=0;" parent="1" source="NeOViKhieci7HEMfsE7Z-34" target="NeOViKhieci7HEMfsE7Z-21" edge="1">
          <mxGeometry relative="1" as="geometry" />
        </mxCell>
        <mxCell id="NeOViKhieci7HEMfsE7Z-34" value="&lt;span style=&quot;font-size: 14px;&quot;&gt;состоит в&lt;/span&gt;" style="shape=rhombus;perimeter=rhombusPerimeter;whiteSpace=wrap;html=1;align=center;" parent="1" vertex="1">
          <mxGeometry x="770" y="206" width="120" height="60" as="geometry" />
        </mxCell>
        <mxCell id="NeOViKhieci7HEMfsE7Z-37" value="company" style="swimlane;fontStyle=0;childLayout=stackLayout;horizontal=1;startSize=26;horizontalStack=0;resizeParent=1;resizeParentMax=0;resizeLast=0;collapsible=1;marginBottom=0;align=center;fontSize=14;" parent="1" vertex="1">
          <mxGeometry x="159" y="868" width="160" height="86" as="geometry" />
        </mxCell>
        <mxCell id="NeOViKhieci7HEMfsE7Z-38" value="PK uuid id" style="text;strokeColor=none;fillColor=none;spacingLeft=4;spacingRight=4;overflow=hidden;rotatable=0;points=[[0,0.5],[1,0.5]];portConstraint=eastwest;fontSize=12;whiteSpace=wrap;html=1;" parent="NeOViKhieci7HEMfsE7Z-37" vertex="1">
          <mxGeometry y="26" width="160" height="30" as="geometry" />
        </mxCell>
        <mxCell id="NeOViKhieci7HEMfsE7Z-39" value="text name" style="text;strokeColor=none;fillColor=none;spacingLeft=4;spacingRight=4;overflow=hidden;rotatable=0;points=[[0,0.5],[1,0.5]];portConstraint=eastwest;fontSize=12;whiteSpace=wrap;html=1;" parent="NeOViKhieci7HEMfsE7Z-37" vertex="1">
          <mxGeometry y="56" width="160" height="30" as="geometry" />
        </mxCell>
        <mxCell id="NeOViKhieci7HEMfsE7Z-41" value="workshop (участок)" style="swimlane;fontStyle=0;childLayout=stackLayout;horizontal=1;startSize=26;horizontalStack=0;resizeParent=1;resizeParentMax=0;resizeLast=0;collapsible=1;marginBottom=0;align=center;fontSize=14;" parent="1" vertex="1">
          <mxGeometry x="807" y="967" width="180" height="146" as="geometry" />
        </mxCell>
        <mxCell id="NeOViKhieci7HEMfsE7Z-42" value="PK uuid id" style="text;strokeColor=none;fillColor=none;spacingLeft=4;spacingRight=4;overflow=hidden;rotatable=0;points=[[0,0.5],[1,0.5]];portConstraint=eastwest;fontSize=12;whiteSpace=wrap;html=1;" parent="NeOViKhieci7HEMfsE7Z-41" vertex="1">
          <mxGeometry y="26" width="180" height="30" as="geometry" />
        </mxCell>
        <mxCell id="NeOViKhieci7HEMfsE7Z-43" value="FK int department_id" style="text;strokeColor=none;fillColor=none;spacingLeft=4;spacingRight=4;overflow=hidden;rotatable=0;points=[[0,0.5],[1,0.5]];portConstraint=eastwest;fontSize=12;whiteSpace=wrap;html=1;" parent="NeOViKhieci7HEMfsE7Z-41" vertex="1">
          <mxGeometry y="56" width="180" height="30" as="geometry" />
        </mxCell>
        <mxCell id="NeOViKhieci7HEMfsE7Z-44" value="text name" style="text;strokeColor=none;fillColor=none;spacingLeft=4;spacingRight=4;overflow=hidden;rotatable=0;points=[[0,0.5],[1,0.5]];portConstraint=eastwest;fontSize=12;whiteSpace=wrap;html=1;" parent="NeOViKhieci7HEMfsE7Z-41" vertex="1">
          <mxGeometry y="86" width="180" height="30" as="geometry" />
        </mxCell>
        <mxCell id="NeOViKhieci7HEMfsE7Z-57" value="FK int head CHECK if engineer" style="text;strokeColor=none;fillColor=none;spacingLeft=4;spacingRight=4;overflow=hidden;rotatable=0;points=[[0,0.5],[1,0.5]];portConstraint=eastwest;fontSize=12;whiteSpace=wrap;html=1;" parent="NeOViKhieci7HEMfsE7Z-41" vertex="1">
          <mxGeometry y="116" width="180" height="30" as="geometry" />
        </mxCell>
        <mxCell id="NeOViKhieci7HEMfsE7Z-45" value="department (цех)" style="swimlane;fontStyle=0;childLayout=stackLayout;horizontal=1;startSize=26;horizontalStack=0;resizeParent=1;resizeParentMax=0;resizeLast=0;collapsible=1;marginBottom=0;align=center;fontSize=14;" parent="1" vertex="1">
          <mxGeometry x="394" y="778" width="180" height="146" as="geometry" />
        </mxCell>
        <mxCell id="NeOViKhieci7HEMfsE7Z-46" value="PK uuid id" style="text;strokeColor=none;fillColor=none;spacingLeft=4;spacingRight=4;overflow=hidden;rotatable=0;points=[[0,0.5],[1,0.5]];portConstraint=eastwest;fontSize=12;whiteSpace=wrap;html=1;" parent="NeOViKhieci7HEMfsE7Z-45" vertex="1">
          <mxGeometry y="26" width="180" height="30" as="geometry" />
        </mxCell>
        <mxCell id="NeOViKhieci7HEMfsE7Z-47" value="FK int head CHECK if engineer" style="text;strokeColor=none;fillColor=none;spacingLeft=4;spacingRight=4;overflow=hidden;rotatable=0;points=[[0,0.5],[1,0.5]];portConstraint=eastwest;fontSize=12;whiteSpace=wrap;html=1;" parent="NeOViKhieci7HEMfsE7Z-45" vertex="1">
          <mxGeometry y="56" width="180" height="30" as="geometry" />
        </mxCell>
        <mxCell id="NeOViKhieci7HEMfsE7Z-48" value="text name" style="text;strokeColor=none;fillColor=none;spacingLeft=4;spacingRight=4;overflow=hidden;rotatable=0;points=[[0,0.5],[1,0.5]];portConstraint=eastwest;fontSize=12;whiteSpace=wrap;html=1;" parent="NeOViKhieci7HEMfsE7Z-45" vertex="1">
          <mxGeometry y="86" width="180" height="30" as="geometry" />
        </mxCell>
        <mxCell id="NeOViKhieci7HEMfsE7Z-56" value="FK int company_id" style="text;strokeColor=none;fillColor=none;spacingLeft=4;spacingRight=4;overflow=hidden;rotatable=0;points=[[0,0.5],[1,0.5]];portConstraint=eastwest;fontSize=12;whiteSpace=wrap;html=1;" parent="NeOViKhieci7HEMfsE7Z-45" vertex="1">
          <mxGeometry y="116" width="180" height="30" as="geometry" />
        </mxCell>
        <mxCell id="NeOViKhieci7HEMfsE7Z-49" value="" style="edgeStyle=entityRelationEdgeStyle;fontSize=12;html=1;endArrow=ERoneToMany;startArrow=ERmandOne;rounded=0;exitX=1;exitY=0.5;exitDx=0;exitDy=0;entryX=0;entryY=0.5;entryDx=0;entryDy=0;" parent="1" source="NeOViKhieci7HEMfsE7Z-38" target="NeOViKhieci7HEMfsE7Z-56" edge="1">
          <mxGeometry width="100" height="100" relative="1" as="geometry">
            <mxPoint x="570" y="680" as="sourcePoint" />
            <mxPoint x="670" y="580" as="targetPoint" />
          </mxGeometry>
        </mxCell>
        <mxCell id="NeOViKhieci7HEMfsE7Z-50" value="employee" style="swimlane;fontStyle=0;childLayout=stackLayout;horizontal=1;startSize=26;horizontalStack=0;resizeParent=1;resizeParentMax=0;resizeLast=0;collapsible=1;marginBottom=0;align=center;fontSize=14;" parent="1" vertex="1">
          <mxGeometry x="737" y="695" width="176" height="126" as="geometry" />
        </mxCell>
        <mxCell id="NeOViKhieci7HEMfsE7Z-51" value="PK uuid id" style="text;strokeColor=none;fillColor=none;spacingLeft=4;spacingRight=4;overflow=hidden;rotatable=0;points=[[0,0.5],[1,0.5]];portConstraint=eastwest;fontSize=12;whiteSpace=wrap;html=1;" parent="NeOViKhieci7HEMfsE7Z-50" vertex="1">
          <mxGeometry y="26" width="176" height="30" as="geometry" />
        </mxCell>
        <mxCell id="NeOViKhieci7HEMfsE7Z-52" value="text name" style="text;strokeColor=none;fillColor=none;spacingLeft=4;spacingRight=4;overflow=hidden;rotatable=0;points=[[0,0.5],[1,0.5]];portConstraint=eastwest;fontSize=12;whiteSpace=wrap;html=1;" parent="NeOViKhieci7HEMfsE7Z-50" vertex="1">
          <mxGeometry y="56" width="176" height="30" as="geometry" />
        </mxCell>
        <mxCell id="agfvGwsfetXZyLL7fOz3-46" value="enum (worker/engineer/tester) position" style="text;strokeColor=none;fillColor=none;spacingLeft=4;spacingRight=4;overflow=hidden;rotatable=0;points=[[0,0.5],[1,0.5]];portConstraint=eastwest;fontSize=12;whiteSpace=wrap;html=1;" parent="NeOViKhieci7HEMfsE7Z-50" vertex="1">
          <mxGeometry y="86" width="176" height="40" as="geometry" />
        </mxCell>
        <mxCell id="NeOViKhieci7HEMfsE7Z-54" value="" style="edgeStyle=entityRelationEdgeStyle;fontSize=12;html=1;endArrow=ERmandOne;startArrow=ERmandOne;rounded=0;exitX=0;exitY=0.5;exitDx=0;exitDy=0;entryX=1;entryY=0.5;entryDx=0;entryDy=0;" parent="1" source="NeOViKhieci7HEMfsE7Z-51" target="NeOViKhieci7HEMfsE7Z-47" edge="1">
          <mxGeometry width="100" height="100" relative="1" as="geometry">
            <mxPoint x="380" y="866" as="sourcePoint" />
            <mxPoint x="480" y="766" as="targetPoint" />
          </mxGeometry>
        </mxCell>
        <mxCell id="NeOViKhieci7HEMfsE7Z-55" value="" style="edgeStyle=entityRelationEdgeStyle;fontSize=12;html=1;endArrow=ERoneToMany;startArrow=ERmandOne;rounded=0;entryX=0;entryY=0.5;entryDx=0;entryDy=0;exitX=1;exitY=0.5;exitDx=0;exitDy=0;" parent="1" source="NeOViKhieci7HEMfsE7Z-46" target="NeOViKhieci7HEMfsE7Z-43" edge="1">
          <mxGeometry width="100" height="100" relative="1" as="geometry">
            <mxPoint x="550" y="760" as="sourcePoint" />
            <mxPoint x="620" y="862.5" as="targetPoint" />
          </mxGeometry>
        </mxCell>
        <mxCell id="NeOViKhieci7HEMfsE7Z-58" value="" style="edgeStyle=entityRelationEdgeStyle;fontSize=12;html=1;endArrow=ERmandOne;startArrow=ERmandOne;rounded=0;exitX=1;exitY=0.5;exitDx=0;exitDy=0;" parent="1" source="NeOViKhieci7HEMfsE7Z-51" target="NeOViKhieci7HEMfsE7Z-57" edge="1">
          <mxGeometry width="100" height="100" relative="1" as="geometry">
            <mxPoint x="869.9999999999991" y="760" as="sourcePoint" />
            <mxPoint x="1069.999999999999" y="1140" as="targetPoint" />
            <Array as="points">
              <mxPoint x="939.9999999999991" y="1060" />
              <mxPoint x="979.9999999999991" y="1050" />
              <mxPoint x="949.9999999999991" y="1120" />
              <mxPoint x="959.9999999999991" y="1100" />
            </Array>
          </mxGeometry>
        </mxCell>
        <mxCell id="NeOViKhieci7HEMfsE7Z-59" value="test lab" style="swimlane;fontStyle=0;childLayout=stackLayout;horizontal=1;startSize=26;horizontalStack=0;resizeParent=1;resizeParentMax=0;resizeLast=0;collapsible=1;marginBottom=0;align=center;fontSize=14;" parent="1" vertex="1">
          <mxGeometry x="-115" y="1142" width="160" height="86" as="geometry" />
        </mxCell>
        <mxCell id="NeOViKhieci7HEMfsE7Z-60" value="PK uuid id" style="text;strokeColor=none;fillColor=none;spacingLeft=4;spacingRight=4;overflow=hidden;rotatable=0;points=[[0,0.5],[1,0.5]];portConstraint=eastwest;fontSize=12;whiteSpace=wrap;html=1;" parent="NeOViKhieci7HEMfsE7Z-59" vertex="1">
          <mxGeometry y="26" width="160" height="30" as="geometry" />
        </mxCell>
        <mxCell id="NeOViKhieci7HEMfsE7Z-62" value="text title" style="text;strokeColor=none;fillColor=none;spacingLeft=4;spacingRight=4;overflow=hidden;rotatable=0;points=[[0,0.5],[1,0.5]];portConstraint=eastwest;fontSize=12;whiteSpace=wrap;html=1;" parent="NeOViKhieci7HEMfsE7Z-59" vertex="1">
          <mxGeometry y="56" width="160" height="30" as="geometry" />
        </mxCell>
        <mxCell id="NeOViKhieci7HEMfsE7Z-64" value="tlab - dep" style="swimlane;fontStyle=0;childLayout=stackLayout;horizontal=1;startSize=26;horizontalStack=0;resizeParent=1;resizeParentMax=0;resizeLast=0;collapsible=1;marginBottom=0;align=center;fontSize=14;" parent="1" vertex="1">
          <mxGeometry x="70" y="747" width="160" height="86" as="geometry" />
        </mxCell>
        <mxCell id="NeOViKhieci7HEMfsE7Z-65" value="FK int test_lab_id" style="text;strokeColor=none;fillColor=none;spacingLeft=4;spacingRight=4;overflow=hidden;rotatable=0;points=[[0,0.5],[1,0.5]];portConstraint=eastwest;fontSize=12;whiteSpace=wrap;html=1;" parent="NeOViKhieci7HEMfsE7Z-64" vertex="1">
          <mxGeometry y="26" width="160" height="30" as="geometry" />
        </mxCell>
        <mxCell id="NeOViKhieci7HEMfsE7Z-66" value="FK int department_id" style="text;strokeColor=none;fillColor=none;spacingLeft=4;spacingRight=4;overflow=hidden;rotatable=0;points=[[0,0.5],[1,0.5]];portConstraint=eastwest;fontSize=12;whiteSpace=wrap;html=1;" parent="NeOViKhieci7HEMfsE7Z-64" vertex="1">
          <mxGeometry y="56" width="160" height="30" as="geometry" />
        </mxCell>
        <mxCell id="NeOViKhieci7HEMfsE7Z-68" value="" style="edgeStyle=entityRelationEdgeStyle;fontSize=12;html=1;endArrow=ERoneToMany;startArrow=ERmandOne;rounded=0;exitX=1;exitY=0.5;exitDx=0;exitDy=0;entryX=0;entryY=0.5;entryDx=0;entryDy=0;" parent="1" source="NeOViKhieci7HEMfsE7Z-60" target="NeOViKhieci7HEMfsE7Z-65" edge="1">
          <mxGeometry width="100" height="100" relative="1" as="geometry">
            <mxPoint x="380" y="1090" as="sourcePoint" />
            <mxPoint x="460" y="1180" as="targetPoint" />
          </mxGeometry>
        </mxCell>
        <mxCell id="NeOViKhieci7HEMfsE7Z-69" value="" style="edgeStyle=entityRelationEdgeStyle;fontSize=12;html=1;endArrow=ERoneToMany;startArrow=ERmandOne;rounded=0;exitX=0;exitY=0.5;exitDx=0;exitDy=0;entryX=1;entryY=0.5;entryDx=0;entryDy=0;" parent="1" source="NeOViKhieci7HEMfsE7Z-46" target="NeOViKhieci7HEMfsE7Z-66" edge="1">
          <mxGeometry width="100" height="100" relative="1" as="geometry">
            <mxPoint x="680" y="1070" as="sourcePoint" />
            <mxPoint x="750" y="1070" as="targetPoint" />
            <Array as="points">
              <mxPoint x="950" y="1089" />
            </Array>
          </mxGeometry>
        </mxCell>
        <mxCell id="NeOViKhieci7HEMfsE7Z-76" value="brigade" style="swimlane;fontStyle=0;childLayout=stackLayout;horizontal=1;startSize=26;horizontalStack=0;resizeParent=1;resizeParentMax=0;resizeLast=0;collapsible=1;marginBottom=0;align=center;fontSize=14;" parent="1" vertex="1">
          <mxGeometry x="1179" y="535" width="180" height="116" as="geometry" />
        </mxCell>
        <mxCell id="NeOViKhieci7HEMfsE7Z-77" value="PK uuid id" style="text;strokeColor=none;fillColor=none;spacingLeft=4;spacingRight=4;overflow=hidden;rotatable=0;points=[[0,0.5],[1,0.5]];portConstraint=eastwest;fontSize=12;whiteSpace=wrap;html=1;" parent="NeOViKhieci7HEMfsE7Z-76" vertex="1">
          <mxGeometry y="26" width="180" height="30" as="geometry" />
        </mxCell>
        <mxCell id="NeOViKhieci7HEMfsE7Z-79" value="FK int head CHECK if worker" style="text;strokeColor=none;fillColor=none;spacingLeft=4;spacingRight=4;overflow=hidden;rotatable=0;points=[[0,0.5],[1,0.5]];portConstraint=eastwest;fontSize=12;whiteSpace=wrap;html=1;" parent="NeOViKhieci7HEMfsE7Z-76" vertex="1">
          <mxGeometry y="56" width="180" height="30" as="geometry" />
        </mxCell>
        <mxCell id="NeOViKhieci7HEMfsE7Z-91" value="FK int workshop_id" style="text;strokeColor=none;fillColor=none;spacingLeft=4;spacingRight=4;overflow=hidden;rotatable=0;points=[[0,0.5],[1,0.5]];portConstraint=eastwest;fontSize=12;whiteSpace=wrap;html=1;" parent="NeOViKhieci7HEMfsE7Z-76" vertex="1">
          <mxGeometry y="86" width="180" height="30" as="geometry" />
        </mxCell>
        <mxCell id="NeOViKhieci7HEMfsE7Z-93" value="product" style="swimlane;fontStyle=0;childLayout=stackLayout;horizontal=1;startSize=26;horizontalStack=0;resizeParent=1;resizeParentMax=0;resizeLast=0;collapsible=1;marginBottom=0;align=center;fontSize=14;" parent="1" vertex="1">
          <mxGeometry x="-212" y="542" width="168" height="86" as="geometry" />
        </mxCell>
        <mxCell id="NeOViKhieci7HEMfsE7Z-94" value="PK uuid id" style="text;strokeColor=none;fillColor=none;spacingLeft=4;spacingRight=4;overflow=hidden;rotatable=0;points=[[0,0.5],[1,0.5]];portConstraint=eastwest;fontSize=12;whiteSpace=wrap;html=1;" parent="NeOViKhieci7HEMfsE7Z-93" vertex="1">
          <mxGeometry y="26" width="168" height="30" as="geometry" />
        </mxCell>
        <mxCell id="NeOViKhieci7HEMfsE7Z-96" value="FK int model_id" style="text;strokeColor=none;fillColor=none;spacingLeft=4;spacingRight=4;overflow=hidden;rotatable=0;points=[[0,0.5],[1,0.5]];portConstraint=eastwest;fontSize=12;whiteSpace=wrap;html=1;" parent="NeOViKhieci7HEMfsE7Z-93" vertex="1">
          <mxGeometry y="56" width="168" height="30" as="geometry" />
        </mxCell>
        <mxCell id="NeOViKhieci7HEMfsE7Z-98" value="product_category" style="swimlane;fontStyle=0;childLayout=stackLayout;horizontal=1;startSize=26;horizontalStack=0;resizeParent=1;resizeParentMax=0;resizeLast=0;collapsible=1;marginBottom=0;align=center;fontSize=14;" parent="1" vertex="1">
          <mxGeometry x="408" y="463" width="200" height="116" as="geometry" />
        </mxCell>
        <mxCell id="NeOViKhieci7HEMfsE7Z-99" value="PK uuid id" style="text;strokeColor=none;fillColor=none;spacingLeft=4;spacingRight=4;overflow=hidden;rotatable=0;points=[[0,0.5],[1,0.5]];portConstraint=eastwest;fontSize=12;whiteSpace=wrap;html=1;" parent="NeOViKhieci7HEMfsE7Z-98" vertex="1">
          <mxGeometry y="26" width="200" height="30" as="geometry" />
        </mxCell>
        <mxCell id="NeOViKhieci7HEMfsE7Z-100" value="text title" style="text;strokeColor=none;fillColor=none;spacingLeft=4;spacingRight=4;overflow=hidden;rotatable=0;points=[[0,0.5],[1,0.5]];portConstraint=eastwest;fontSize=12;whiteSpace=wrap;html=1;" parent="NeOViKhieci7HEMfsE7Z-98" vertex="1">
          <mxGeometry y="56" width="200" height="30" as="geometry" />
        </mxCell>
        <mxCell id="agfvGwsfetXZyLL7fOz3-26" value="JSON attr" style="text;strokeColor=none;fillColor=none;spacingLeft=4;spacingRight=4;overflow=hidden;rotatable=0;points=[[0,0.5],[1,0.5]];portConstraint=eastwest;fontSize=12;whiteSpace=wrap;html=1;" parent="NeOViKhieci7HEMfsE7Z-98" vertex="1">
          <mxGeometry y="86" width="200" height="30" as="geometry" />
        </mxCell>
        <mxCell id="NeOViKhieci7HEMfsE7Z-105" value="product_model" style="swimlane;fontStyle=0;childLayout=stackLayout;horizontal=1;startSize=26;horizontalStack=0;resizeParent=1;resizeParentMax=0;resizeLast=0;collapsible=1;marginBottom=0;align=center;fontSize=14;" parent="1" vertex="1">
          <mxGeometry x="102" y="499" width="200" height="146" as="geometry" />
        </mxCell>
        <mxCell id="NeOViKhieci7HEMfsE7Z-106" value="PK uuid id" style="text;strokeColor=none;fillColor=none;spacingLeft=4;spacingRight=4;overflow=hidden;rotatable=0;points=[[0,0.5],[1,0.5]];portConstraint=eastwest;fontSize=12;whiteSpace=wrap;html=1;" parent="NeOViKhieci7HEMfsE7Z-105" vertex="1">
          <mxGeometry y="26" width="200" height="30" as="geometry" />
        </mxCell>
        <mxCell id="NeOViKhieci7HEMfsE7Z-107" value="text title" style="text;strokeColor=none;fillColor=none;spacingLeft=4;spacingRight=4;overflow=hidden;rotatable=0;points=[[0,0.5],[1,0.5]];portConstraint=eastwest;fontSize=12;whiteSpace=wrap;html=1;" parent="NeOViKhieci7HEMfsE7Z-105" vertex="1">
          <mxGeometry y="56" width="200" height="30" as="geometry" />
        </mxCell>
        <mxCell id="NeOViKhieci7HEMfsE7Z-109" value="FK int category_id" style="text;strokeColor=none;fillColor=none;spacingLeft=4;spacingRight=4;overflow=hidden;rotatable=0;points=[[0,0.5],[1,0.5]];portConstraint=eastwest;fontSize=12;whiteSpace=wrap;html=1;" parent="NeOViKhieci7HEMfsE7Z-105" vertex="1">
          <mxGeometry y="86" width="200" height="30" as="geometry" />
        </mxCell>
        <mxCell id="NeOViKhieci7HEMfsE7Z-112" value="FK int department_id" style="text;strokeColor=none;fillColor=none;spacingLeft=4;spacingRight=4;overflow=hidden;rotatable=0;points=[[0,0.5],[1,0.5]];portConstraint=eastwest;fontSize=12;whiteSpace=wrap;html=1;" parent="NeOViKhieci7HEMfsE7Z-105" vertex="1">
          <mxGeometry y="116" width="200" height="30" as="geometry" />
        </mxCell>
        <mxCell id="NeOViKhieci7HEMfsE7Z-110" value="" style="edgeStyle=entityRelationEdgeStyle;fontSize=12;html=1;endArrow=ERoneToMany;startArrow=ERmandOne;rounded=0;exitX=0;exitY=0.5;exitDx=0;exitDy=0;entryX=1;entryY=0.5;entryDx=0;entryDy=0;" parent="1" source="NeOViKhieci7HEMfsE7Z-99" target="NeOViKhieci7HEMfsE7Z-109" edge="1">
          <mxGeometry width="100" height="100" relative="1" as="geometry">
            <mxPoint x="1050" y="1160" as="sourcePoint" />
            <mxPoint x="1150" y="1060" as="targetPoint" />
          </mxGeometry>
        </mxCell>
        <mxCell id="NeOViKhieci7HEMfsE7Z-111" value="" style="edgeStyle=entityRelationEdgeStyle;fontSize=12;html=1;endArrow=ERoneToMany;startArrow=ERmandOne;rounded=0;exitX=0;exitY=0.5;exitDx=0;exitDy=0;entryX=1;entryY=0.5;entryDx=0;entryDy=0;" parent="1" source="NeOViKhieci7HEMfsE7Z-106" target="NeOViKhieci7HEMfsE7Z-96" edge="1">
          <mxGeometry width="100" height="100" relative="1" as="geometry">
            <mxPoint x="1120" y="1240" as="sourcePoint" />
            <mxPoint x="1130" y="1300" as="targetPoint" />
          </mxGeometry>
        </mxCell>
        <mxCell id="NeOViKhieci7HEMfsE7Z-113" value="" style="edgeStyle=entityRelationEdgeStyle;fontSize=12;html=1;endArrow=ERoneToMany;startArrow=ERmandOne;rounded=0;exitX=0;exitY=0.5;exitDx=0;exitDy=0;entryX=1;entryY=0.5;entryDx=0;entryDy=0;" parent="1" source="NeOViKhieci7HEMfsE7Z-46" target="NeOViKhieci7HEMfsE7Z-112" edge="1">
          <mxGeometry width="100" height="100" relative="1" as="geometry">
            <mxPoint x="330" y="840" as="sourcePoint" />
            <mxPoint x="390" y="731" as="targetPoint" />
            <Array as="points">
              <mxPoint x="330" y="810" />
            </Array>
          </mxGeometry>
        </mxCell>
        <mxCell id="kSvIuGLijfrFBoBiarRV-7" value="test lab equipment" style="swimlane;fontStyle=0;childLayout=stackLayout;horizontal=1;startSize=26;horizontalStack=0;resizeParent=1;resizeParentMax=0;resizeLast=0;collapsible=1;marginBottom=0;align=center;fontSize=14;" parent="1" vertex="1">
          <mxGeometry x="-335" y="1000" width="160" height="116" as="geometry" />
        </mxCell>
        <mxCell id="kSvIuGLijfrFBoBiarRV-8" value="PK uuid id" style="text;strokeColor=none;fillColor=none;spacingLeft=4;spacingRight=4;overflow=hidden;rotatable=0;points=[[0,0.5],[1,0.5]];portConstraint=eastwest;fontSize=12;whiteSpace=wrap;html=1;" parent="kSvIuGLijfrFBoBiarRV-7" vertex="1">
          <mxGeometry y="26" width="160" height="30" as="geometry" />
        </mxCell>
        <mxCell id="kSvIuGLijfrFBoBiarRV-15" value="text title" style="text;strokeColor=none;fillColor=none;spacingLeft=4;spacingRight=4;overflow=hidden;rotatable=0;points=[[0,0.5],[1,0.5]];portConstraint=eastwest;fontSize=12;whiteSpace=wrap;html=1;" parent="kSvIuGLijfrFBoBiarRV-7" vertex="1">
          <mxGeometry y="56" width="160" height="30" as="geometry" />
        </mxCell>
        <mxCell id="kSvIuGLijfrFBoBiarRV-9" value="FK int test_lab_id" style="text;strokeColor=none;fillColor=none;spacingLeft=4;spacingRight=4;overflow=hidden;rotatable=0;points=[[0,0.5],[1,0.5]];portConstraint=eastwest;fontSize=12;whiteSpace=wrap;html=1;" parent="kSvIuGLijfrFBoBiarRV-7" vertex="1">
          <mxGeometry y="86" width="160" height="30" as="geometry" />
        </mxCell>
        <mxCell id="kSvIuGLijfrFBoBiarRV-16" value="" style="edgeStyle=entityRelationEdgeStyle;fontSize=12;html=1;endArrow=ERoneToMany;startArrow=ERmandOne;rounded=0;exitX=0;exitY=0.5;exitDx=0;exitDy=0;entryX=1;entryY=0.5;entryDx=0;entryDy=0;" parent="1" source="NeOViKhieci7HEMfsE7Z-60" target="kSvIuGLijfrFBoBiarRV-9" edge="1">
          <mxGeometry width="100" height="100" relative="1" as="geometry">
            <mxPoint x="310" y="1051" as="sourcePoint" />
            <mxPoint x="400" y="1061" as="targetPoint" />
          </mxGeometry>
        </mxCell>
        <mxCell id="agfvGwsfetXZyLL7fOz3-5" value="workers" style="swimlane;fontStyle=0;childLayout=stackLayout;horizontal=1;startSize=26;horizontalStack=0;resizeParent=1;resizeParentMax=0;resizeLast=0;collapsible=1;marginBottom=0;align=center;fontSize=14;" parent="1" vertex="1">
          <mxGeometry x="1397" y="717" width="180" height="116" as="geometry" />
        </mxCell>
        <mxCell id="agfvGwsfetXZyLL7fOz3-6" value="PK uuid id" style="text;strokeColor=none;fillColor=none;spacingLeft=4;spacingRight=4;overflow=hidden;rotatable=0;points=[[0,0.5],[1,0.5]];portConstraint=eastwest;fontSize=12;whiteSpace=wrap;html=1;" parent="agfvGwsfetXZyLL7fOz3-5" vertex="1">
          <mxGeometry y="26" width="180" height="30" as="geometry" />
        </mxCell>
        <mxCell id="agfvGwsfetXZyLL7fOz3-17" value="FK int employee&lt;span style=&quot;background-color: transparent; color: light-dark(rgb(0, 0, 0), rgb(255, 255, 255));&quot;&gt;_id&lt;/span&gt;" style="text;strokeColor=none;fillColor=none;spacingLeft=4;spacingRight=4;overflow=hidden;rotatable=0;points=[[0,0.5],[1,0.5]];portConstraint=eastwest;fontSize=12;whiteSpace=wrap;html=1;" parent="agfvGwsfetXZyLL7fOz3-5" vertex="1">
          <mxGeometry y="56" width="180" height="30" as="geometry" />
        </mxCell>
        <mxCell id="agfvGwsfetXZyLL7fOz3-10" value="FK int brigade_id" style="text;strokeColor=none;fillColor=none;spacingLeft=4;spacingRight=4;overflow=hidden;rotatable=0;points=[[0,0.5],[1,0.5]];portConstraint=eastwest;fontSize=12;whiteSpace=wrap;html=1;" parent="agfvGwsfetXZyLL7fOz3-5" vertex="1">
          <mxGeometry y="86" width="180" height="30" as="geometry" />
        </mxCell>
        <mxCell id="agfvGwsfetXZyLL7fOz3-11" value="engineer" style="swimlane;fontStyle=0;childLayout=stackLayout;horizontal=1;startSize=26;horizontalStack=0;resizeParent=1;resizeParentMax=0;resizeLast=0;collapsible=1;marginBottom=0;align=center;fontSize=14;" parent="1" vertex="1">
          <mxGeometry x="1243" y="884" width="180" height="116" as="geometry" />
        </mxCell>
        <mxCell id="agfvGwsfetXZyLL7fOz3-12" value="PK uuid id" style="text;strokeColor=none;fillColor=none;spacingLeft=4;spacingRight=4;overflow=hidden;rotatable=0;points=[[0,0.5],[1,0.5]];portConstraint=eastwest;fontSize=12;whiteSpace=wrap;html=1;" parent="agfvGwsfetXZyLL7fOz3-11" vertex="1">
          <mxGeometry y="26" width="180" height="30" as="geometry" />
        </mxCell>
        <mxCell id="agfvGwsfetXZyLL7fOz3-18" value="FK int employee&lt;span style=&quot;background-color: transparent; color: light-dark(rgb(0, 0, 0), rgb(255, 255, 255));&quot;&gt;_id&lt;/span&gt;" style="text;strokeColor=none;fillColor=none;spacingLeft=4;spacingRight=4;overflow=hidden;rotatable=0;points=[[0,0.5],[1,0.5]];portConstraint=eastwest;fontSize=12;whiteSpace=wrap;html=1;" parent="agfvGwsfetXZyLL7fOz3-11" vertex="1">
          <mxGeometry y="56" width="180" height="30" as="geometry" />
        </mxCell>
        <mxCell id="agfvGwsfetXZyLL7fOz3-13" value="FK int workshop_id" style="text;strokeColor=none;fillColor=none;spacingLeft=4;spacingRight=4;overflow=hidden;rotatable=0;points=[[0,0.5],[1,0.5]];portConstraint=eastwest;fontSize=12;whiteSpace=wrap;html=1;" parent="agfvGwsfetXZyLL7fOz3-11" vertex="1">
          <mxGeometry y="86" width="180" height="30" as="geometry" />
        </mxCell>
        <mxCell id="agfvGwsfetXZyLL7fOz3-14" value="testers" style="swimlane;fontStyle=0;childLayout=stackLayout;horizontal=1;startSize=26;horizontalStack=0;resizeParent=1;resizeParentMax=0;resizeLast=0;collapsible=1;marginBottom=0;align=center;fontSize=14;" parent="1" vertex="1">
          <mxGeometry x="1202" y="1074" width="180" height="116" as="geometry" />
        </mxCell>
        <mxCell id="agfvGwsfetXZyLL7fOz3-15" value="PK uuid id" style="text;strokeColor=none;fillColor=none;spacingLeft=4;spacingRight=4;overflow=hidden;rotatable=0;points=[[0,0.5],[1,0.5]];portConstraint=eastwest;fontSize=12;whiteSpace=wrap;html=1;" parent="agfvGwsfetXZyLL7fOz3-14" vertex="1">
          <mxGeometry y="26" width="180" height="30" as="geometry" />
        </mxCell>
        <mxCell id="agfvGwsfetXZyLL7fOz3-19" value="FK int employee&lt;span style=&quot;background-color: transparent; color: light-dark(rgb(0, 0, 0), rgb(255, 255, 255));&quot;&gt;_id&lt;/span&gt;" style="text;strokeColor=none;fillColor=none;spacingLeft=4;spacingRight=4;overflow=hidden;rotatable=0;points=[[0,0.5],[1,0.5]];portConstraint=eastwest;fontSize=12;whiteSpace=wrap;html=1;" parent="agfvGwsfetXZyLL7fOz3-14" vertex="1">
          <mxGeometry y="56" width="180" height="30" as="geometry" />
        </mxCell>
        <mxCell id="agfvGwsfetXZyLL7fOz3-16" value="FK int test_lab_id" style="text;strokeColor=none;fillColor=none;spacingLeft=4;spacingRight=4;overflow=hidden;rotatable=0;points=[[0,0.5],[1,0.5]];portConstraint=eastwest;fontSize=12;whiteSpace=wrap;html=1;" parent="agfvGwsfetXZyLL7fOz3-14" vertex="1">
          <mxGeometry y="86" width="180" height="30" as="geometry" />
        </mxCell>
        <mxCell id="agfvGwsfetXZyLL7fOz3-20" value="" style="edgeStyle=entityRelationEdgeStyle;fontSize=12;html=1;endArrow=ERoneToMany;startArrow=ERmandOne;rounded=0;exitX=1;exitY=0.5;exitDx=0;exitDy=0;entryX=0;entryY=0.5;entryDx=0;entryDy=0;" parent="1" source="NeOViKhieci7HEMfsE7Z-77" target="agfvGwsfetXZyLL7fOz3-10" edge="1">
          <mxGeometry width="100" height="100" relative="1" as="geometry">
            <mxPoint x="1322" y="1136" as="sourcePoint" />
            <mxPoint x="1225" y="1211" as="targetPoint" />
            <Array as="points">
              <mxPoint x="1582" y="1214" />
            </Array>
          </mxGeometry>
        </mxCell>
        <mxCell id="agfvGwsfetXZyLL7fOz3-21" value="" style="edgeStyle=entityRelationEdgeStyle;fontSize=12;html=1;endArrow=ERmandOne;startArrow=ERmandOne;rounded=0;exitX=0.997;exitY=0.092;exitDx=0;exitDy=0;entryX=0;entryY=0.5;entryDx=0;entryDy=0;exitPerimeter=0;" parent="1" source="NeOViKhieci7HEMfsE7Z-51" target="NeOViKhieci7HEMfsE7Z-79" edge="1">
          <mxGeometry width="100" height="100" relative="1" as="geometry">
            <mxPoint x="856" y="801" as="sourcePoint" />
            <mxPoint x="880" y="1111" as="targetPoint" />
            <Array as="points">
              <mxPoint x="949.9999999999991" y="1070" />
              <mxPoint x="989.9999999999991" y="1060" />
              <mxPoint x="959.9999999999991" y="1130" />
              <mxPoint x="969.9999999999991" y="1110" />
            </Array>
          </mxGeometry>
        </mxCell>
        <mxCell id="agfvGwsfetXZyLL7fOz3-22" value="" style="edgeStyle=entityRelationEdgeStyle;fontSize=12;html=1;endArrow=ERmandOne;startArrow=ERmandOne;rounded=0;exitX=0;exitY=0.5;exitDx=0;exitDy=0;entryX=1;entryY=0.5;entryDx=0;entryDy=0;" parent="1" source="agfvGwsfetXZyLL7fOz3-17" target="NeOViKhieci7HEMfsE7Z-51" edge="1">
          <mxGeometry width="100" height="100" relative="1" as="geometry">
            <mxPoint x="680" y="801" as="sourcePoint" />
            <mxPoint x="585" y="857" as="targetPoint" />
          </mxGeometry>
        </mxCell>
        <mxCell id="agfvGwsfetXZyLL7fOz3-23" value="" style="edgeStyle=entityRelationEdgeStyle;fontSize=12;html=1;endArrow=ERmandOne;startArrow=ERmandOne;rounded=0;exitX=0;exitY=0.5;exitDx=0;exitDy=0;entryX=1;entryY=0.5;entryDx=0;entryDy=0;" parent="1" source="agfvGwsfetXZyLL7fOz3-18" target="NeOViKhieci7HEMfsE7Z-51" edge="1">
          <mxGeometry width="100" height="100" relative="1" as="geometry">
            <mxPoint x="1175" y="771" as="sourcePoint" />
            <mxPoint x="1008" y="813" as="targetPoint" />
          </mxGeometry>
        </mxCell>
        <mxCell id="agfvGwsfetXZyLL7fOz3-24" value="" style="edgeStyle=entityRelationEdgeStyle;fontSize=12;html=1;endArrow=ERmandOne;startArrow=ERmandOne;rounded=0;exitX=0;exitY=0.5;exitDx=0;exitDy=0;entryX=1;entryY=0.5;entryDx=0;entryDy=0;" parent="1" source="agfvGwsfetXZyLL7fOz3-19" target="NeOViKhieci7HEMfsE7Z-51" edge="1">
          <mxGeometry width="100" height="100" relative="1" as="geometry">
            <mxPoint x="1181" y="984" as="sourcePoint" />
            <mxPoint x="856" y="801" as="targetPoint" />
          </mxGeometry>
        </mxCell>
        <mxCell id="agfvGwsfetXZyLL7fOz3-25" value="" style="edgeStyle=entityRelationEdgeStyle;fontSize=12;html=1;endArrow=ERoneToMany;startArrow=ERmandOne;rounded=0;exitX=1;exitY=0.5;exitDx=0;exitDy=0;entryX=0;entryY=0.5;entryDx=0;entryDy=0;" parent="1" source="NeOViKhieci7HEMfsE7Z-60" target="agfvGwsfetXZyLL7fOz3-16" edge="1">
          <mxGeometry width="100" height="100" relative="1" as="geometry">
            <mxPoint x="444" y="1147" as="sourcePoint" />
            <mxPoint x="289" y="1242" as="targetPoint" />
          </mxGeometry>
        </mxCell>
        <mxCell id="agfvGwsfetXZyLL7fOz3-27" value="" style="edgeStyle=entityRelationEdgeStyle;fontSize=12;html=1;endArrow=ERoneToMany;startArrow=ERmandOne;rounded=0;exitX=1;exitY=0.5;exitDx=0;exitDy=0;entryX=0;entryY=0.5;entryDx=0;entryDy=0;" parent="1" source="NeOViKhieci7HEMfsE7Z-42" target="NeOViKhieci7HEMfsE7Z-91" edge="1">
          <mxGeometry width="100" height="100" relative="1" as="geometry">
            <mxPoint x="1150" y="675" as="sourcePoint" />
            <mxPoint x="1212" y="830" as="targetPoint" />
            <Array as="points">
              <mxPoint x="1592" y="1224" />
            </Array>
          </mxGeometry>
        </mxCell>
        <mxCell id="agfvGwsfetXZyLL7fOz3-34" value="" style="edgeStyle=entityRelationEdgeStyle;fontSize=12;html=1;endArrow=ERoneToMany;startArrow=ERmandOne;rounded=0;entryX=0;entryY=0.5;entryDx=0;entryDy=0;exitX=1;exitY=0.5;exitDx=0;exitDy=0;" parent="1" source="NeOViKhieci7HEMfsE7Z-42" target="agfvGwsfetXZyLL7fOz3-13" edge="1">
          <mxGeometry width="100" height="100" relative="1" as="geometry">
            <mxPoint x="584" y="829" as="sourcePoint" />
            <mxPoint x="700" y="1051" as="targetPoint" />
          </mxGeometry>
        </mxCell>
        <mxCell id="agfvGwsfetXZyLL7fOz3-39" value="" style="edgeStyle=orthogonalEdgeStyle;fontSize=12;html=1;endArrow=ERoneToMany;startArrow=ERmandOne;rounded=0;exitX=0;exitY=0.5;exitDx=0;exitDy=0;entryX=1;entryY=0.5;entryDx=0;entryDy=0;" parent="1" edge="1">
          <mxGeometry width="100" height="100" relative="1" as="geometry">
            <mxPoint x="807" y="1005" as="sourcePoint" />
            <mxPoint x="-340" y="726" as="targetPoint" />
            <Array as="points">
              <mxPoint x="807" y="1011" />
              <mxPoint x="-38" y="1011" />
              <mxPoint x="-38" y="727" />
              <mxPoint x="-331" y="727" />
            </Array>
          </mxGeometry>
        </mxCell>
        <mxCell id="agfvGwsfetXZyLL7fOz3-40" value="employee_logs" style="swimlane;fontStyle=0;childLayout=stackLayout;horizontal=1;startSize=26;horizontalStack=0;resizeParent=1;resizeParentMax=0;resizeLast=0;collapsible=1;marginBottom=0;align=center;fontSize=14;" parent="1" vertex="1">
          <mxGeometry x="430" y="1208" width="176" height="186" as="geometry" />
        </mxCell>
        <mxCell id="agfvGwsfetXZyLL7fOz3-41" value="PK uuid id" style="text;strokeColor=none;fillColor=none;spacingLeft=4;spacingRight=4;overflow=hidden;rotatable=0;points=[[0,0.5],[1,0.5]];portConstraint=eastwest;fontSize=12;whiteSpace=wrap;html=1;" parent="agfvGwsfetXZyLL7fOz3-40" vertex="1">
          <mxGeometry y="26" width="176" height="30" as="geometry" />
        </mxCell>
        <mxCell id="agfvGwsfetXZyLL7fOz3-42" value="FK int emploee_id" style="text;strokeColor=none;fillColor=none;spacingLeft=4;spacingRight=4;overflow=hidden;rotatable=0;points=[[0,0.5],[1,0.5]];portConstraint=eastwest;fontSize=12;whiteSpace=wrap;html=1;" parent="agfvGwsfetXZyLL7fOz3-40" vertex="1">
          <mxGeometry y="56" width="176" height="30" as="geometry" />
        </mxCell>
        <mxCell id="agfvGwsfetXZyLL7fOz3-47" value="enum (worker/engineer/tester) position" style="text;strokeColor=none;fillColor=none;spacingLeft=4;spacingRight=4;overflow=hidden;rotatable=0;points=[[0,0.5],[1,0.5]];portConstraint=eastwest;fontSize=12;whiteSpace=wrap;html=1;" parent="agfvGwsfetXZyLL7fOz3-40" vertex="1">
          <mxGeometry y="86" width="176" height="40" as="geometry" />
        </mxCell>
        <mxCell id="agfvGwsfetXZyLL7fOz3-43" value="timestamp start_work" style="text;strokeColor=none;fillColor=none;spacingLeft=4;spacingRight=4;overflow=hidden;rotatable=0;points=[[0,0.5],[1,0.5]];portConstraint=eastwest;fontSize=12;whiteSpace=wrap;html=1;" parent="agfvGwsfetXZyLL7fOz3-40" vertex="1">
          <mxGeometry y="126" width="176" height="30" as="geometry" />
        </mxCell>
        <mxCell id="agfvGwsfetXZyLL7fOz3-44" value="timestamp end_work" style="text;strokeColor=none;fillColor=none;spacingLeft=4;spacingRight=4;overflow=hidden;rotatable=0;points=[[0,0.5],[1,0.5]];portConstraint=eastwest;fontSize=12;whiteSpace=wrap;html=1;" parent="agfvGwsfetXZyLL7fOz3-40" vertex="1">
          <mxGeometry y="156" width="176" height="30" as="geometry" />
        </mxCell>
        <mxCell id="agfvGwsfetXZyLL7fOz3-48" value="" style="edgeStyle=entityRelationEdgeStyle;fontSize=12;html=1;endArrow=ERmandOne;startArrow=ERmandOne;rounded=0;exitX=1;exitY=0.5;exitDx=0;exitDy=0;entryX=0;entryY=0.5;entryDx=0;entryDy=0;" parent="1" source="agfvGwsfetXZyLL7fOz3-42" target="NeOViKhieci7HEMfsE7Z-51" edge="1">
          <mxGeometry width="100" height="100" relative="1" as="geometry">
            <mxPoint x="855" y="789" as="sourcePoint" />
            <mxPoint x="1016" y="704" as="targetPoint" />
            <Array as="points">
              <mxPoint x="959.9999999999991" y="1080" />
              <mxPoint x="999.9999999999991" y="1070" />
              <mxPoint x="969.9999999999991" y="1140" />
              <mxPoint x="979.9999999999991" y="1120" />
            </Array>
          </mxGeometry>
        </mxCell>
        <mxCell id="agfvGwsfetXZyLL7fOz3-49" value="product_logs" style="swimlane;fontStyle=0;childLayout=stackLayout;horizontal=1;startSize=26;horizontalStack=0;resizeParent=1;resizeParentMax=0;resizeLast=0;collapsible=1;marginBottom=0;align=center;fontSize=14;" parent="1" vertex="1">
          <mxGeometry x="-516" y="528" width="176" height="206" as="geometry" />
        </mxCell>
        <mxCell id="agfvGwsfetXZyLL7fOz3-50" value="PK uuid id" style="text;strokeColor=none;fillColor=none;spacingLeft=4;spacingRight=4;overflow=hidden;rotatable=0;points=[[0,0.5],[1,0.5]];portConstraint=eastwest;fontSize=12;whiteSpace=wrap;html=1;" parent="agfvGwsfetXZyLL7fOz3-49" vertex="1">
          <mxGeometry y="26" width="176" height="30" as="geometry" />
        </mxCell>
        <mxCell id="agfvGwsfetXZyLL7fOz3-51" value="FK int product_id" style="text;strokeColor=none;fillColor=none;spacingLeft=4;spacingRight=4;overflow=hidden;rotatable=0;points=[[0,0.5],[1,0.5]];portConstraint=eastwest;fontSize=12;whiteSpace=wrap;html=1;" parent="agfvGwsfetXZyLL7fOz3-49" vertex="1">
          <mxGeometry y="56" width="176" height="30" as="geometry" />
        </mxCell>
        <mxCell id="agfvGwsfetXZyLL7fOz3-53" value="timestamp start_work" style="text;strokeColor=none;fillColor=none;spacingLeft=4;spacingRight=4;overflow=hidden;rotatable=0;points=[[0,0.5],[1,0.5]];portConstraint=eastwest;fontSize=12;whiteSpace=wrap;html=1;" parent="agfvGwsfetXZyLL7fOz3-49" vertex="1">
          <mxGeometry y="86" width="176" height="30" as="geometry" />
        </mxCell>
        <mxCell id="agfvGwsfetXZyLL7fOz3-54" value="timestamp end_work" style="text;strokeColor=none;fillColor=none;spacingLeft=4;spacingRight=4;overflow=hidden;rotatable=0;points=[[0,0.5],[1,0.5]];portConstraint=eastwest;fontSize=12;whiteSpace=wrap;html=1;" parent="agfvGwsfetXZyLL7fOz3-49" vertex="1">
          <mxGeometry y="116" width="176" height="30" as="geometry" />
        </mxCell>
        <mxCell id="agfvGwsfetXZyLL7fOz3-56" value="FK int workshop_id" style="text;strokeColor=none;fillColor=none;spacingLeft=4;spacingRight=4;overflow=hidden;rotatable=0;points=[[0,0.5],[1,0.5]];portConstraint=eastwest;fontSize=12;whiteSpace=wrap;html=1;" parent="agfvGwsfetXZyLL7fOz3-49" vertex="1">
          <mxGeometry y="146" width="176" height="30" as="geometry" />
        </mxCell>
        <mxCell id="Hi2HmT6WfnVKzPKDZhds-1" value="FK int testlab_id" style="text;strokeColor=none;fillColor=none;spacingLeft=4;spacingRight=4;overflow=hidden;rotatable=0;points=[[0,0.5],[1,0.5]];portConstraint=eastwest;fontSize=12;whiteSpace=wrap;html=1;" parent="agfvGwsfetXZyLL7fOz3-49" vertex="1">
          <mxGeometry y="176" width="176" height="30" as="geometry" />
        </mxCell>
        <mxCell id="agfvGwsfetXZyLL7fOz3-57" value="" style="edgeStyle=orthogonalEdgeStyle;fontSize=12;html=1;endArrow=ERoneToMany;startArrow=ERmandOne;rounded=0;exitX=0;exitY=0.5;exitDx=0;exitDy=0;entryX=1;entryY=0.5;entryDx=0;entryDy=0;" parent="1" source="NeOViKhieci7HEMfsE7Z-94" target="agfvGwsfetXZyLL7fOz3-51" edge="1">
          <mxGeometry width="100" height="100" relative="1" as="geometry">
            <mxPoint x="-50" y="667.5" as="sourcePoint" />
            <mxPoint x="-257" y="624.5" as="targetPoint" />
          </mxGeometry>
        </mxCell>
        <mxCell id="agfvGwsfetXZyLL7fOz3-58" value="users" style="swimlane;fontStyle=0;childLayout=stackLayout;horizontal=1;startSize=26;horizontalStack=0;resizeParent=1;resizeParentMax=0;resizeLast=0;collapsible=1;marginBottom=0;align=center;fontSize=14;" parent="1" vertex="1">
          <mxGeometry x="-702" y="851" width="211" height="171" as="geometry" />
        </mxCell>
        <mxCell id="agfvGwsfetXZyLL7fOz3-59" value="PK uuid id" style="text;strokeColor=none;fillColor=none;spacingLeft=4;spacingRight=4;overflow=hidden;rotatable=0;points=[[0,0.5],[1,0.5]];portConstraint=eastwest;fontSize=12;whiteSpace=wrap;html=1;" parent="agfvGwsfetXZyLL7fOz3-58" vertex="1">
          <mxGeometry y="26" width="211" height="30" as="geometry" />
        </mxCell>
        <mxCell id="agfvGwsfetXZyLL7fOz3-61" value="enum (head depr/head w_shop/head company/test_lab_admin/accountant) role" style="text;strokeColor=none;fillColor=none;spacingLeft=4;spacingRight=4;overflow=hidden;rotatable=0;points=[[0,0.5],[1,0.5]];portConstraint=eastwest;fontSize=12;whiteSpace=wrap;html=1;" parent="agfvGwsfetXZyLL7fOz3-58" vertex="1">
          <mxGeometry y="56" width="211" height="55" as="geometry" />
        </mxCell>
        <mxCell id="agfvGwsfetXZyLL7fOz3-63" value="text login" style="text;strokeColor=none;fillColor=none;spacingLeft=4;spacingRight=4;overflow=hidden;rotatable=0;points=[[0,0.5],[1,0.5]];portConstraint=eastwest;fontSize=12;whiteSpace=wrap;html=1;" parent="agfvGwsfetXZyLL7fOz3-58" vertex="1">
          <mxGeometry y="111" width="211" height="30" as="geometry" />
        </mxCell>
        <mxCell id="agfvGwsfetXZyLL7fOz3-64" value="text password_hash" style="text;strokeColor=none;fillColor=none;spacingLeft=4;spacingRight=4;overflow=hidden;rotatable=0;points=[[0,0.5],[1,0.5]];portConstraint=eastwest;fontSize=12;whiteSpace=wrap;html=1;" parent="agfvGwsfetXZyLL7fOz3-58" vertex="1">
          <mxGeometry y="141" width="211" height="30" as="geometry" />
        </mxCell>
        <mxCell id="Hi2HmT6WfnVKzPKDZhds-2" value="" style="edgeStyle=orthogonalEdgeStyle;fontSize=12;html=1;endArrow=ERoneToMany;startArrow=ERmandOne;rounded=0;exitX=0;exitY=0.5;exitDx=0;exitDy=0;entryX=1;entryY=0.5;entryDx=0;entryDy=0;" parent="1" source="NeOViKhieci7HEMfsE7Z-60" target="Hi2HmT6WfnVKzPKDZhds-1" edge="1">
          <mxGeometry width="100" height="100" relative="1" as="geometry">
            <mxPoint x="220" y="1123" as="sourcePoint" />
            <mxPoint x="-530" y="882" as="targetPoint" />
            <Array as="points">
              <mxPoint x="-127" y="1183" />
              <mxPoint x="-127" y="1062" />
              <mxPoint x="-152" y="1062" />
              <mxPoint x="-152" y="882" />
              <mxPoint x="-309" y="882" />
              <mxPoint x="-309" y="759" />
            </Array>
          </mxGeometry>
        </mxCell>
      </root>
    </mxGraphModel>
  </diagram>
</mxfile>
